<mxfile host="app.diagrams.net" modified="2023-10-12T20:40:37.253Z" agent="Mozilla/5.0 (Windows NT 10.0; Win64; x64) AppleWebKit/537.36 (KHTML, like Gecko) Chrome/117.0.0.0 Safari/537.36" etag="UPSdN4BZPwkCktg74PwT" version="22.0.4" type="device">
  <diagram name="Page-1" id="7_kx8Fdl-tXKK5CfvC7C">
    <mxGraphModel dx="1328" dy="559" grid="1" gridSize="10" guides="1" tooltips="1" connect="1" arrows="1" fold="1" page="1" pageScale="1" pageWidth="850" pageHeight="1100" math="0" shadow="0">
      <root>
        <mxCell id="0" />
        <mxCell id="1" parent="0" />
        <mxCell id="4xHhIWnVE92hovu6Bt8D-1" value="VPC" style="sketch=0;outlineConnect=0;gradientColor=none;html=1;whiteSpace=wrap;fontSize=12;fontStyle=0;shape=mxgraph.aws4.group;grIcon=mxgraph.aws4.group_vpc;strokeColor=#879196;fillColor=none;verticalAlign=top;align=left;spacingLeft=30;fontColor=#879196;dashed=0;movable=0;resizable=0;rotatable=0;deletable=0;editable=0;locked=1;connectable=0;" parent="1" vertex="1">
          <mxGeometry x="136" y="250" width="578.46" height="550" as="geometry" />
        </mxCell>
        <mxCell id="4xHhIWnVE92hovu6Bt8D-2" value="Public subnet" style="points=[[0,0],[0.25,0],[0.5,0],[0.75,0],[1,0],[1,0.25],[1,0.5],[1,0.75],[1,1],[0.75,1],[0.5,1],[0.25,1],[0,1],[0,0.75],[0,0.5],[0,0.25]];outlineConnect=0;gradientColor=none;html=1;whiteSpace=wrap;fontSize=12;fontStyle=0;container=1;pointerEvents=0;collapsible=0;recursiveResize=0;shape=mxgraph.aws4.group;grIcon=mxgraph.aws4.group_security_group;grStroke=0;strokeColor=#248814;fillColor=#E9F3E6;verticalAlign=top;align=left;spacingLeft=30;fontColor=#248814;dashed=0;" parent="1" vertex="1">
          <mxGeometry x="180" y="370" width="265.83" height="290" as="geometry" />
        </mxCell>
        <mxCell id="4xHhIWnVE92hovu6Bt8D-9" style="edgeStyle=orthogonalEdgeStyle;rounded=0;orthogonalLoop=1;jettySize=auto;html=1;" parent="1" source="4xHhIWnVE92hovu6Bt8D-5" target="4xHhIWnVE92hovu6Bt8D-8" edge="1">
          <mxGeometry relative="1" as="geometry" />
        </mxCell>
        <mxCell id="4xHhIWnVE92hovu6Bt8D-5" value="" style="sketch=0;outlineConnect=0;fontColor=#232F3E;gradientColor=none;fillColor=#232F3D;strokeColor=none;dashed=0;verticalLabelPosition=bottom;verticalAlign=top;align=center;html=1;fontSize=12;fontStyle=0;aspect=fixed;pointerEvents=1;shape=mxgraph.aws4.user;" parent="1" vertex="1">
          <mxGeometry x="380.91" y="80" width="50" height="50" as="geometry" />
        </mxCell>
        <mxCell id="4xHhIWnVE92hovu6Bt8D-6" value="User A clicks on a link" style="text;strokeColor=none;align=center;fillColor=none;html=1;verticalAlign=middle;whiteSpace=wrap;rounded=0;" parent="1" vertex="1">
          <mxGeometry x="339.09" y="50" width="90" height="30" as="geometry" />
        </mxCell>
        <mxCell id="4xHhIWnVE92hovu6Bt8D-7" value="User A navigates to a page with updated content" style="text;strokeColor=none;align=center;fillColor=none;html=1;verticalAlign=middle;whiteSpace=wrap;rounded=0;" parent="1" vertex="1">
          <mxGeometry x="530" y="130" width="120" height="30" as="geometry" />
        </mxCell>
        <mxCell id="4xHhIWnVE92hovu6Bt8D-12" style="edgeStyle=orthogonalEdgeStyle;rounded=0;orthogonalLoop=1;jettySize=auto;html=1;" parent="1" source="4xHhIWnVE92hovu6Bt8D-8" target="4xHhIWnVE92hovu6Bt8D-11" edge="1">
          <mxGeometry relative="1" as="geometry" />
        </mxCell>
        <mxCell id="4xHhIWnVE92hovu6Bt8D-8" value="Amazon Route 53" style="sketch=0;outlineConnect=0;fontColor=#232F3E;gradientColor=none;strokeColor=#ffffff;fillColor=#232F3E;dashed=0;verticalLabelPosition=middle;verticalAlign=bottom;align=center;html=1;whiteSpace=wrap;fontSize=10;fontStyle=1;spacing=3;shape=mxgraph.aws4.productIcon;prIcon=mxgraph.aws4.route_53;" parent="1" vertex="1">
          <mxGeometry x="380.91" y="160" width="50.91" height="70" as="geometry" />
        </mxCell>
        <mxCell id="4xHhIWnVE92hovu6Bt8D-10" value="DNS resolution process" style="text;strokeColor=none;align=center;fillColor=none;html=1;verticalAlign=middle;whiteSpace=wrap;rounded=0;" parent="1" vertex="1">
          <mxGeometry x="260" y="130" width="130" height="30" as="geometry" />
        </mxCell>
        <mxCell id="4xHhIWnVE92hovu6Bt8D-14" style="edgeStyle=orthogonalEdgeStyle;rounded=0;orthogonalLoop=1;jettySize=auto;html=1;" parent="1" source="4xHhIWnVE92hovu6Bt8D-11" edge="1">
          <mxGeometry relative="1" as="geometry">
            <mxPoint x="324.0999999999999" y="390" as="targetPoint" />
          </mxGeometry>
        </mxCell>
        <mxCell id="4xHhIWnVE92hovu6Bt8D-11" value="" style="outlineConnect=0;dashed=0;verticalLabelPosition=bottom;verticalAlign=top;align=center;html=1;shape=mxgraph.aws3.route_table;fillColor=#F58536;gradientColor=none;" parent="1" vertex="1">
          <mxGeometry x="384.62" y="280" width="43.48" height="40" as="geometry" />
        </mxCell>
        <mxCell id="4xHhIWnVE92hovu6Bt8D-13" value="Passing Through Route Tables" style="text;strokeColor=none;align=center;fillColor=none;html=1;verticalAlign=middle;whiteSpace=wrap;rounded=0;" parent="1" vertex="1">
          <mxGeometry x="230" y="250" width="180" height="30" as="geometry" />
        </mxCell>
        <mxCell id="4xHhIWnVE92hovu6Bt8D-22" style="edgeStyle=orthogonalEdgeStyle;rounded=0;orthogonalLoop=1;jettySize=auto;html=1;" parent="1" source="4xHhIWnVE92hovu6Bt8D-17" edge="1">
          <mxGeometry relative="1" as="geometry">
            <mxPoint x="230" y="530" as="targetPoint" />
          </mxGeometry>
        </mxCell>
        <mxCell id="4xHhIWnVE92hovu6Bt8D-25" style="edgeStyle=orthogonalEdgeStyle;rounded=0;orthogonalLoop=1;jettySize=auto;html=1;" parent="1" source="4xHhIWnVE92hovu6Bt8D-17" target="4xHhIWnVE92hovu6Bt8D-24" edge="1">
          <mxGeometry relative="1" as="geometry" />
        </mxCell>
        <mxCell id="4xHhIWnVE92hovu6Bt8D-37" style="edgeStyle=orthogonalEdgeStyle;rounded=0;orthogonalLoop=1;jettySize=auto;html=1;" parent="1" source="4xHhIWnVE92hovu6Bt8D-17" target="4xHhIWnVE92hovu6Bt8D-5" edge="1">
          <mxGeometry relative="1" as="geometry">
            <Array as="points">
              <mxPoint x="530" y="400" />
              <mxPoint x="530" y="105" />
            </Array>
          </mxGeometry>
        </mxCell>
        <mxCell id="4xHhIWnVE92hovu6Bt8D-17" value="Amazon Cloudfront" style="sketch=0;outlineConnect=0;fontColor=#232F3E;gradientColor=none;strokeColor=#ffffff;fillColor=#232F3E;dashed=0;verticalLabelPosition=middle;verticalAlign=bottom;align=center;html=1;whiteSpace=wrap;fontSize=10;fontStyle=1;spacing=3;shape=mxgraph.aws4.productIcon;prIcon=mxgraph.aws4.cloudfront;" parent="1" vertex="1">
          <mxGeometry x="290" y="390" width="65.45" height="90" as="geometry" />
        </mxCell>
        <mxCell id="4xHhIWnVE92hovu6Bt8D-23" style="edgeStyle=orthogonalEdgeStyle;rounded=0;orthogonalLoop=1;jettySize=auto;html=1;" parent="1" source="4xHhIWnVE92hovu6Bt8D-18" edge="1" target="4xHhIWnVE92hovu6Bt8D-17">
          <mxGeometry relative="1" as="geometry">
            <mxPoint x="330" y="480" as="targetPoint" />
            <Array as="points">
              <mxPoint x="310" y="570" />
            </Array>
          </mxGeometry>
        </mxCell>
        <mxCell id="4xHhIWnVE92hovu6Bt8D-18" value="Amazon S3" style="sketch=0;outlineConnect=0;fontColor=#232F3E;gradientColor=none;strokeColor=#ffffff;fillColor=#232F3E;dashed=0;verticalLabelPosition=middle;verticalAlign=bottom;align=center;html=1;whiteSpace=wrap;fontSize=10;fontStyle=1;spacing=3;shape=mxgraph.aws4.productIcon;prIcon=mxgraph.aws4.s3;" parent="1" vertex="1">
          <mxGeometry x="200" y="530" width="62.22" height="80" as="geometry" />
        </mxCell>
        <mxCell id="4xHhIWnVE92hovu6Bt8D-19" value="" style="dashed=0;outlineConnect=0;html=1;align=center;labelPosition=center;verticalLabelPosition=bottom;verticalAlign=top;shape=mxgraph.weblogos.html5" parent="1" vertex="1">
          <mxGeometry x="216.95" y="540" width="28.32" height="40" as="geometry" />
        </mxCell>
        <mxCell id="4xHhIWnVE92hovu6Bt8D-24" value="AWS Certificate Manager" style="sketch=0;outlineConnect=0;fontColor=#232F3E;gradientColor=none;strokeColor=#ffffff;fillColor=#232F3E;dashed=0;verticalLabelPosition=middle;verticalAlign=bottom;align=center;html=1;whiteSpace=wrap;fontSize=10;fontStyle=1;spacing=3;shape=mxgraph.aws4.productIcon;prIcon=mxgraph.aws4.certificate_manager_3;" parent="1" vertex="1">
          <mxGeometry x="610" y="460" width="72.73" height="100" as="geometry" />
        </mxCell>
        <mxCell id="4xHhIWnVE92hovu6Bt8D-36" value="Amazon CloudWatch" style="sketch=0;outlineConnect=0;fontColor=#232F3E;gradientColor=none;strokeColor=#ffffff;fillColor=#232F3E;dashed=0;verticalLabelPosition=middle;verticalAlign=bottom;align=center;html=1;whiteSpace=wrap;fontSize=10;fontStyle=1;spacing=3;shape=mxgraph.aws4.productIcon;prIcon=mxgraph.aws4.cloudwatch;" parent="1" vertex="1">
          <mxGeometry x="602.73" y="610" width="80" height="110" as="geometry" />
        </mxCell>
        <mxCell id="z9SZFhehjvawuNXkXo1P-1" value="CloudFront receives the request " style="text;strokeColor=none;align=center;fillColor=none;html=1;verticalAlign=middle;whiteSpace=wrap;rounded=0;" vertex="1" parent="1">
          <mxGeometry x="262.22" y="320" width="60" height="30" as="geometry" />
        </mxCell>
        <mxCell id="z9SZFhehjvawuNXkXo1P-2" value="CloudFront forwards the request to&amp;nbsp; S3 bucket" style="text;strokeColor=none;align=center;fillColor=none;html=1;verticalAlign=middle;whiteSpace=wrap;rounded=0;" vertex="1" parent="1">
          <mxGeometry x="156.95" y="430" width="60" height="30" as="geometry" />
        </mxCell>
        <mxCell id="z9SZFhehjvawuNXkXo1P-3" value="S3 retrieves the requested content and sends it back to CloudFront" style="text;strokeColor=none;align=center;fillColor=none;html=1;verticalAlign=middle;whiteSpace=wrap;rounded=0;" vertex="1" parent="1">
          <mxGeometry x="320.91" y="530" width="60" height="30" as="geometry" />
        </mxCell>
        <mxCell id="z9SZFhehjvawuNXkXo1P-4" value="CloudFront caches the content at edge locations" style="text;strokeColor=none;align=center;fillColor=none;html=1;verticalAlign=middle;whiteSpace=wrap;rounded=0;" vertex="1" parent="1">
          <mxGeometry x="380" y="430" width="19.09" height="20" as="geometry" />
        </mxCell>
        <mxCell id="z9SZFhehjvawuNXkXo1P-7" value="ACM is primarily responsible for managing SSL/TLS certificates to secure communications " style="text;strokeColor=none;align=center;fillColor=none;html=1;verticalAlign=middle;whiteSpace=wrap;rounded=0;" vertex="1" parent="1">
          <mxGeometry x="530" y="430" width="60" height="30" as="geometry" />
        </mxCell>
        <mxCell id="z9SZFhehjvawuNXkXo1P-14" style="edgeStyle=orthogonalEdgeStyle;rounded=0;orthogonalLoop=1;jettySize=auto;html=1;" edge="1" parent="1" source="z9SZFhehjvawuNXkXo1P-8" target="4xHhIWnVE92hovu6Bt8D-18">
          <mxGeometry relative="1" as="geometry" />
        </mxCell>
        <mxCell id="z9SZFhehjvawuNXkXo1P-8" value="AWS CodePipeline" style="sketch=0;outlineConnect=0;fontColor=#232F3E;gradientColor=none;strokeColor=#ffffff;fillColor=#232F3E;dashed=0;verticalLabelPosition=middle;verticalAlign=bottom;align=center;html=1;whiteSpace=wrap;fontSize=10;fontStyle=1;spacing=3;shape=mxgraph.aws4.productIcon;prIcon=mxgraph.aws4.codepipeline;" vertex="1" parent="1">
          <mxGeometry x="204.57999999999998" y="700" width="53.05" height="70" as="geometry" />
        </mxCell>
        <mxCell id="z9SZFhehjvawuNXkXo1P-11" style="edgeStyle=orthogonalEdgeStyle;rounded=0;orthogonalLoop=1;jettySize=auto;html=1;" edge="1" parent="1" source="z9SZFhehjvawuNXkXo1P-9" target="z9SZFhehjvawuNXkXo1P-8">
          <mxGeometry relative="1" as="geometry">
            <Array as="points">
              <mxPoint x="25" y="730" />
            </Array>
          </mxGeometry>
        </mxCell>
        <mxCell id="z9SZFhehjvawuNXkXo1P-9" value="" style="verticalLabelPosition=bottom;html=1;verticalAlign=top;align=center;strokeColor=none;fillColor=#00BEF2;shape=mxgraph.azure.github_code;pointerEvents=1;" vertex="1" parent="1">
          <mxGeometry y="545" width="50" height="50" as="geometry" />
        </mxCell>
        <mxCell id="z9SZFhehjvawuNXkXo1P-12" value="Source Code Changes Trigger CI/CD" style="text;strokeColor=none;align=center;fillColor=none;html=1;verticalAlign=middle;whiteSpace=wrap;rounded=0;" vertex="1" parent="1">
          <mxGeometry x="20" y="760" width="60" height="30" as="geometry" />
        </mxCell>
        <mxCell id="z9SZFhehjvawuNXkXo1P-15" value="Continuous Deployment to S3" style="text;strokeColor=none;align=center;fillColor=none;html=1;verticalAlign=middle;whiteSpace=wrap;rounded=0;" vertex="1" parent="1">
          <mxGeometry x="262.22" y="670" width="60" height="30" as="geometry" />
        </mxCell>
        <mxCell id="z9SZFhehjvawuNXkXo1P-18" style="edgeStyle=orthogonalEdgeStyle;rounded=0;orthogonalLoop=1;jettySize=auto;html=1;entryX=0.907;entryY=0.765;entryDx=0;entryDy=0;entryPerimeter=0;" edge="1" parent="1" source="4xHhIWnVE92hovu6Bt8D-36" target="4xHhIWnVE92hovu6Bt8D-17">
          <mxGeometry relative="1" as="geometry">
            <Array as="points">
              <mxPoint x="390" y="660" />
              <mxPoint x="390" y="459" />
            </Array>
          </mxGeometry>
        </mxCell>
        <mxCell id="z9SZFhehjvawuNXkXo1P-20" value="monitoring 404 error rates" style="text;strokeColor=none;align=center;fillColor=none;html=1;verticalAlign=middle;whiteSpace=wrap;rounded=0;" vertex="1" parent="1">
          <mxGeometry x="470" y="670" width="60" height="30" as="geometry" />
        </mxCell>
      </root>
    </mxGraphModel>
  </diagram>
</mxfile>
